<svg width="373" height="340" viewBox="0 0 373 340" fill="none" xmlns="http://www.w3.org/2000/svg">
<mask id="mask0_2103_34" style="mask-type:luminance" maskUnits="userSpaceOnUse" x="0" y="0" width="373" height="340">
<path d="M372.211 0H0V340H372.211V0Z" fill="white"/>
</mask>
<g mask="url(#mask0_2103_34)">
<path d="M218.824 433.847H76.5322C75.6088 433.847 74.8573 433.099 74.8573 432.172V142.739C74.8573 142.088 75.2366 141.494 75.8272 141.222C75.9274 141.172 85.9055 136.519 91.4421 132.471C97.1255 128.32 104.734 119.984 104.813 119.902C105.192 119.483 105.754 119.301 106.302 119.372C106.857 119.455 107.333 119.812 107.569 120.321C107.597 120.381 110.382 126.24 114.773 128.08C121.688 130.979 131.623 134.432 139.69 134.432C153.333 134.432 167.667 131.702 179.18 129.508C187.129 127.994 193.99 126.688 198.549 126.688C219.597 126.688 235.173 133.695 240.212 145.427C240.333 145.713 240.448 146.007 240.559 146.311C240.681 145.932 240.792 145.613 240.895 145.377C245.96 133.674 261.524 126.691 282.536 126.691C287.096 126.691 293.957 127.997 301.906 129.511C313.419 131.705 327.749 134.436 341.396 134.436C352.465 134.436 361.277 132.36 369.108 127.904C372.114 125.235 372.797 123.864 374.268 120.911C374.523 120.407 375.013 120.063 375.571 119.995C376.126 119.913 376.688 120.149 377.049 120.582C387.26 132.75 394.146 137.46 406.525 140.742C407.259 140.935 407.771 141.601 407.771 142.36V431.206C407.771 432.133 407.023 432.881 406.096 432.881H263.797C263.514 432.881 263.239 432.809 262.992 432.673C262.781 432.559 261.832 431.983 260.895 430.555H222.034C220.857 432.262 220.166 433.181 220.166 433.181C219.848 433.597 219.35 433.847 218.824 433.847ZM78.2072 430.497H217.972C218.362 429.953 218.978 429.091 219.765 427.935C220.077 427.477 220.596 427.201 221.15 427.201H261.861C262.491 427.201 263.067 427.555 263.353 428.117C263.726 428.847 264.112 429.291 264.363 429.527H404.414V143.637C392.679 140.348 385.635 135.646 376.101 124.644C375.027 126.598 373.853 128.173 371.187 130.528C371.101 130.603 371.012 130.667 370.911 130.725C362.512 135.542 353.131 137.786 341.385 137.786C327.424 137.786 312.922 135.023 301.269 132.804C293.488 131.322 286.77 130.041 282.526 130.041C267.369 130.041 249.277 134.418 243.959 146.708C243.526 147.714 242.391 152.324 242.202 154.89C242.137 155.752 241.425 156.425 240.563 156.439C239.646 156.472 238.959 155.806 238.866 154.947C238.605 152.567 238.143 149.131 237.123 146.751C231.83 134.432 213.72 130.041 198.539 130.041C194.297 130.041 187.576 131.322 179.799 132.804C168.146 135.023 153.644 137.786 139.683 137.786C131.057 137.786 120.668 134.193 113.474 131.176C109.777 129.629 107.118 126.133 105.701 123.857C103.106 126.591 97.8091 131.97 93.4141 135.184C88.5933 138.706 80.9128 142.507 78.2036 143.806V430.497H78.2072Z" fill="#7C2007"/>
<path d="M240.924 529.201C239.696 529.201 238.698 528.21 238.691 526.982L238.601 514.037C238.594 512.806 239.585 511.797 240.82 511.789C240.824 511.789 240.831 511.789 240.835 511.789C242.062 511.789 243.061 512.781 243.068 514.008L243.157 526.953C243.164 528.185 242.173 529.194 240.938 529.201C240.935 529.201 240.928 529.201 240.924 529.201ZM153.301 494.693C153.029 494.693 152.753 494.643 152.485 494.535C151.336 494.084 150.774 492.789 151.221 491.64L159.66 470.166C160.111 469.017 161.411 468.452 162.556 468.903C163.705 469.354 164.27 470.649 163.819 471.798L155.38 493.272C155.033 494.156 154.192 494.693 153.301 494.693ZM328.547 494.22C327.667 494.22 326.829 493.694 326.479 492.828L322.409 482.832C321.944 481.691 322.495 480.388 323.637 479.923C324.775 479.464 326.081 480.005 326.547 481.15L330.616 491.146C331.081 492.288 330.53 493.591 329.388 494.056C329.113 494.167 328.83 494.22 328.547 494.22ZM70.7236 458.953C70.3371 458.953 69.9505 458.853 69.5926 458.646C68.5297 458.023 68.1754 456.652 68.7981 455.589L75.6804 443.879C76.3068 442.812 77.6739 442.462 78.7369 443.084C79.7998 443.707 80.1577 445.078 79.5314 446.141L72.6491 457.851C72.2339 458.56 71.4895 458.953 70.7236 458.953ZM410.355 454.372C409.564 454.372 408.798 453.95 408.394 453.209L403.652 444.53C403.061 443.446 403.458 442.089 404.539 441.499C405.62 440.905 406.976 441.306 407.571 442.387L412.313 451.065C412.903 452.15 412.506 453.506 411.425 454.097C411.085 454.283 410.72 454.372 410.355 454.372ZM240.924 451.66C239.7 451.66 238.705 450.675 238.691 449.451L238.601 441.545C238.587 440.311 239.575 439.301 240.809 439.287C240.82 439.287 240.827 439.287 240.835 439.287C242.059 439.287 243.053 440.271 243.068 441.495L243.157 449.401C243.172 450.636 242.184 451.645 240.949 451.66C240.942 451.66 240.931 451.66 240.924 451.66ZM21.4737 384.583C21.0228 384.583 20.5646 384.447 20.171 384.161C19.1689 383.441 18.9434 382.045 19.6628 381.043L61.0604 323.512C61.7798 322.51 63.1756 322.284 64.1777 323.004C65.1798 323.723 65.4053 325.119 64.6859 326.121L23.2882 383.652C22.8552 384.261 22.168 384.583 21.4737 384.583ZM466.065 378.033C465.41 378.033 464.762 377.747 464.318 377.196L460.564 372.504C459.795 371.541 459.948 370.135 460.911 369.365C461.874 368.592 463.28 368.75 464.05 369.712L467.804 374.404C468.574 375.367 468.42 376.774 467.457 377.543C467.049 377.872 466.555 378.033 466.065 378.033ZM4.41644 306.265C3.84738 306.265 3.27475 306.047 2.8417 305.613C1.96844 304.744 1.96486 303.327 2.83454 302.453L61.2895 243.759C62.1592 242.882 63.5729 242.882 64.4497 243.751C65.323 244.621 65.3265 246.035 64.4569 246.912L6.00191 305.606C5.5617 306.047 4.98907 306.265 4.41644 306.265ZM480.785 302.893C480.252 302.893 479.715 302.704 479.285 302.317L457.708 282.812C456.792 281.985 456.724 280.572 457.55 279.659C458.377 278.743 459.791 278.675 460.704 279.501L482.281 299.007C483.197 299.833 483.265 301.247 482.439 302.16C482.002 302.647 481.393 302.893 480.785 302.893ZM9.8457 220.191C9.08338 220.191 8.34254 219.801 7.9238 219.1C7.29391 218.04 7.64107 216.669 8.70044 216.04L61.7297 184.484C62.7891 183.851 64.1598 184.201 64.7897 185.261C65.4196 186.32 65.0724 187.691 64.0131 188.321L10.9874 219.876C10.6295 220.091 10.2358 220.191 9.8457 220.191ZM461.144 210.886C460.747 210.886 460.346 210.779 459.981 210.56L418.404 185.207C417.352 184.566 417.019 183.192 417.66 182.136C418.304 181.08 419.678 180.751 420.73 181.392L462.307 206.745C463.359 207.386 463.692 208.76 463.051 209.816C462.633 210.507 461.895 210.886 461.144 210.886ZM58.412 137.07C57.4708 137.07 56.5975 136.472 56.2897 135.528C55.9068 134.354 56.5474 133.094 57.7177 132.711L76.7148 126.509C77.8851 126.126 79.1484 126.763 79.5314 127.937C79.9143 129.111 79.2737 130.37 78.1034 130.753L59.1063 136.956C58.8773 137.034 58.6446 137.07 58.412 137.07ZM423.45 135.52C423.236 135.52 423.021 135.488 422.806 135.424L396.114 127.393C394.933 127.038 394.264 125.793 394.618 124.612C394.973 123.431 396.218 122.765 397.399 123.116L424.091 131.147C425.272 131.501 425.941 132.747 425.587 133.928C425.297 134.898 424.409 135.52 423.45 135.52ZM240.835 124.275C239.603 124.275 238.601 123.277 238.601 122.042V108.471C238.601 107.236 239.6 106.237 240.835 106.237C242.069 106.237 243.068 107.236 243.068 108.471V122.042C243.068 123.277 242.066 124.275 240.835 124.275ZM227.75 118.653C227.546 118.653 227.335 118.624 227.127 118.563C225.943 118.22 225.259 116.981 225.603 115.797L226.669 112.114C227.013 110.929 228.247 110.249 229.436 110.589C230.62 110.933 231.304 112.171 230.96 113.356L229.894 117.039C229.611 118.019 228.72 118.653 227.75 118.653ZM253.715 118.61C252.749 118.61 251.858 117.976 251.571 116.999L250.512 113.36C250.168 112.175 250.848 110.937 252.033 110.589C253.218 110.246 254.456 110.926 254.803 112.111L255.863 115.75C256.206 116.935 255.526 118.173 254.341 118.52C254.134 118.581 253.923 118.61 253.715 118.61ZM124.519 115.36C123.574 115.36 122.697 114.755 122.393 113.807C122.017 112.633 122.661 111.377 123.839 110.997L199.054 86.861C200.228 86.4888 201.488 87.133 201.863 88.3069C202.239 89.4808 201.595 90.737 200.421 91.1164L125.206 115.253C124.977 115.324 124.744 115.36 124.519 115.36ZM356.077 114.734C355.858 114.734 355.633 114.702 355.411 114.63L280.493 91.2166C279.315 90.848 278.66 89.5954 279.029 88.4179C279.394 87.244 280.64 86.5819 281.828 86.9541L356.746 110.368C357.923 110.736 358.578 111.989 358.21 113.166C357.909 114.122 357.025 114.734 356.077 114.734ZM299.379 114.197C298.978 114.197 298.574 114.09 298.209 113.864L283.088 104.559C282.039 103.911 281.71 102.537 282.357 101.485C283.005 100.432 284.38 100.107 285.432 100.755L300.553 110.06C301.601 110.708 301.931 112.082 301.283 113.134C300.861 113.818 300.127 114.197 299.379 114.197ZM181.517 114.197C180.765 114.197 180.035 113.818 179.613 113.134C178.969 112.082 179.295 110.708 180.343 110.06L195.464 100.755C196.516 100.11 197.891 100.436 198.539 101.485C199.183 102.537 198.857 103.911 197.808 104.559L182.687 113.864C182.319 114.09 181.914 114.197 181.517 114.197ZM91.1737 99.4625C90.1143 99.4625 89.1766 98.7074 88.9798 97.6301C88.7579 96.4168 89.5596 95.2537 90.7729 95.0318L203.016 74.4815C204.229 74.256 205.392 75.0613 205.614 76.2745C205.836 77.4878 205.034 78.6509 203.821 78.8728L91.5781 99.4231C91.4421 99.4518 91.3061 99.4625 91.1737 99.4625ZM394.761 99.4625C394.633 99.4625 394.504 99.4518 394.371 99.4267L277.283 78.88C276.069 78.6653 275.257 77.5093 275.468 76.2924C275.679 75.0756 276.842 74.2667 278.052 74.4779L395.141 95.0282C396.354 95.2429 397.167 96.3989 396.955 97.6158C396.766 98.7002 395.824 99.4625 394.761 99.4625ZM134.987 69.2204C133.756 69.2204 132.757 68.2219 132.754 66.9907C132.75 65.756 133.749 64.7575 134.984 64.7539L189.845 64.6573H189.849C191.08 64.6573 192.079 65.6558 192.082 66.8869C192.086 68.1217 191.087 69.1202 189.852 69.1238L134.991 69.2204C134.991 69.2204 134.991 69.2204 134.987 69.2204ZM343.965 69.2204H291.237C290.006 69.2204 289.004 68.2219 289.004 66.9871C289.004 65.7524 290.006 64.7539 291.237 64.7539H343.965C345.197 64.7539 346.199 65.7524 346.199 66.9871C346.199 68.2219 345.2 69.2204 343.965 69.2204Z" fill="#7C2007"/>
<path d="M221.15 430.358C220.907 430.358 220.656 430.304 220.424 430.189C219.59 429.785 219.243 428.787 219.644 427.953C219.955 427.308 220.205 426.593 220.452 425.612C216.555 422.541 210.109 420.662 203.316 420.662C201.903 420.662 199.176 421.002 195.049 421.514C180.762 423.289 147.299 427.448 83.5112 427.448C82.5842 427.448 81.8362 426.7 81.8362 425.773V140.026C81.8362 139.099 82.5842 138.351 83.5112 138.351C84.4381 138.351 85.1861 139.099 85.1861 140.026V424.098C147.682 424.027 180.533 419.943 194.634 418.189C199.036 417.642 201.695 417.312 203.313 417.312C211.351 417.312 219.064 419.782 223.437 423.758C223.881 424.163 224.074 424.771 223.949 425.354C223.566 427.119 223.18 428.332 222.657 429.413C222.371 430.011 221.773 430.358 221.15 430.358ZM261.789 430.308C261.177 430.308 260.59 429.975 260.297 429.395C259.896 428.608 259.674 427.731 259.445 426.797C259.338 426.371 259.23 425.927 259.094 425.48C258.908 424.868 259.091 424.202 259.563 423.765C264.609 419.105 270.282 417.119 278.535 417.119C283.549 417.119 290.224 417.785 299.461 418.705C319.264 420.677 349.069 423.64 396.665 423.708V290.85C396.665 289.923 397.413 289.175 398.34 289.175C399.267 289.175 400.015 289.923 400.015 290.85V425.387C400.015 426.313 399.267 427.061 398.34 427.061C349.602 427.061 319.231 424.037 299.132 422.04C289.991 421.131 283.385 420.473 278.539 420.473C271.528 420.473 266.825 421.958 262.595 425.562C262.63 425.705 262.666 425.848 262.702 425.988C262.884 426.729 263.06 427.427 263.285 427.87C263.708 428.693 263.378 429.703 262.555 430.125C262.305 430.25 262.043 430.308 261.789 430.308ZM91.2667 420.859C90.3398 420.859 89.5918 420.111 89.5918 419.184V135.764C89.5918 134.837 90.3398 134.089 91.2667 134.089C92.1937 134.089 92.9417 134.837 92.9417 135.764V417.506C150.395 417.416 176.814 412.724 192.662 409.915C199.523 408.698 204.476 407.817 209.132 407.817C215.957 407.817 224.615 413.444 226.916 418.05C227.331 418.876 226.995 419.882 226.168 420.297C225.334 420.712 224.332 420.376 223.92 419.549C222.306 416.317 214.884 411.171 209.136 411.171C204.773 411.171 199.941 412.03 193.249 413.218C177.136 416.071 150.176 420.859 91.2667 420.859ZM256.432 420.473C256.181 420.473 255.923 420.415 255.684 420.294C254.857 419.879 254.52 418.876 254.936 418.046C257.237 413.44 265.894 407.814 272.719 407.814C278.557 407.814 284.125 408.633 291.831 409.768C308.419 412.209 333.4 415.884 389.296 415.956V136.54C389.296 135.613 390.044 134.865 390.971 134.865C391.898 134.865 392.646 135.613 392.646 136.54V417.635C392.646 418.561 391.898 419.309 390.971 419.309C333.655 419.309 308.19 415.562 291.341 413.086C283.775 411.973 278.31 411.167 272.716 411.167C266.968 411.167 259.545 416.314 257.931 419.546C257.638 420.133 257.047 420.473 256.432 420.473ZM249.259 416.4C249.009 416.4 248.751 416.343 248.511 416.221C247.685 415.806 247.348 414.804 247.763 413.973C248.515 412.47 255.626 399.282 273.492 399.282C282.551 399.282 289.125 400.452 297.45 401.93C309.311 404.042 325.552 406.926 358.868 407.878C359.795 407.903 360.522 408.676 360.493 409.6C360.464 410.527 359.666 411.311 358.772 411.225C325.208 410.269 308.827 407.356 296.863 405.23C288.703 403.78 282.254 402.632 273.492 402.632C260.615 402.632 253.143 410.702 250.759 415.473C250.462 416.06 249.871 416.4 249.259 416.4ZM231.812 416.01C231.196 416.01 230.606 415.67 230.312 415.083C228.852 412.162 222.954 402.632 208.356 402.632C199.627 402.632 193.195 404.024 185.057 405.788C170.05 409.038 149.5 413.49 98.6322 413.49C97.7053 413.49 96.9573 412.742 96.9573 411.815V129.171C96.9573 128.244 97.7053 127.496 98.6322 127.496C99.5592 127.496 100.307 128.244 100.307 129.171V410.14C149.596 410.044 169.656 405.699 184.348 402.517C192.683 400.713 199.269 399.285 208.356 399.285C224.876 399.285 231.633 410.233 233.308 413.587C233.723 414.413 233.387 415.419 232.56 415.834C232.32 415.956 232.066 416.01 231.812 416.01ZM241.099 415.043C241.042 415.043 240.985 415.043 240.924 415.043C240.244 415.043 239.603 414.625 239.353 413.948C235.692 403.992 223.298 393.333 210.685 393.333C199.397 393.333 190.987 395.363 180.343 397.936C164.506 401.762 144.793 406.518 106.001 406.518C105.557 406.518 105.132 406.339 104.817 406.028C104.502 405.713 104.326 405.287 104.326 404.843L104.351 122.586C104.351 121.659 105.103 120.911 106.026 120.911C106.953 120.911 107.701 121.663 107.701 122.586L107.676 403.165C144.965 403.029 164.12 398.405 179.556 394.679C189.988 392.16 199 389.984 210.685 389.984C223.702 389.984 235.781 399.568 241.013 409.478C246.232 399.568 258.25 389.984 271.17 389.984C282.415 389.984 291.019 392.117 300.986 394.586C316.458 398.419 335.662 403.179 374.179 402.059V121.806C374.179 120.879 374.927 120.131 375.854 120.131C376.781 120.131 377.529 120.879 377.529 121.806V403.677C377.529 404.582 376.813 405.323 375.908 405.352C335.856 406.672 316.068 401.773 300.181 397.836C290.428 395.42 282.007 393.333 271.173 393.333C258.257 393.333 246.325 404.035 242.678 413.948C242.42 414.621 241.779 415.043 241.099 415.043ZM383.216 409.904C382.289 409.904 381.541 409.156 381.541 408.229L381.566 129.268C381.566 128.341 382.314 127.593 383.241 127.593C384.168 127.593 384.916 128.345 384.916 129.268L384.891 408.229C384.891 409.156 384.139 409.904 383.216 409.904ZM398.362 257.051C397.435 257.051 396.687 256.303 396.687 255.376L396.662 140.416C396.662 139.493 397.41 138.741 398.337 138.741C399.264 138.741 400.012 139.489 400.012 140.416L400.037 255.376C400.037 256.299 399.285 257.051 398.362 257.051Z" fill="#7C2007"/>
<path d="M141.494 176.932C139.973 176.932 138.437 176.811 136.956 176.689L135.732 176.592C134.858 176.528 133.971 176.503 133.087 176.481C127.482 176.328 120.51 176.141 120.607 164.828V149.915C120.607 144.253 123.495 141.379 129.186 141.379C130.753 141.379 132.385 141.583 133.82 141.762C134.801 141.884 135.732 141.998 136.512 142.038L138.641 142.131C147.173 142.492 151.873 142.689 151.873 152.821V167.552C151.873 176.932 144.06 176.932 141.494 176.932ZM129.189 144.729C125.961 144.729 123.96 145.595 123.96 149.915V164.843C123.892 172.881 127.586 172.981 133.18 173.132C134.114 173.157 135.055 173.182 135.979 173.25L137.224 173.346C138.641 173.461 140.109 173.579 141.494 173.579C146.619 173.579 148.523 171.947 148.523 167.552V152.821C148.523 145.903 146.995 145.835 138.502 145.477L136.354 145.38C135.445 145.337 134.457 145.212 133.409 145.083C132.002 144.912 130.549 144.729 129.189 144.729ZM136.53 152.921C135.656 155.731 134.93 159.514 134.93 159.514C134.93 159.514 135.864 159.768 138.033 159.854C138.033 159.85 137.5 156.021 136.53 152.921ZM134.01 149.138C136.53 149.332 137.016 149.428 139.404 149.55C140.305 156.561 143.884 168.372 143.884 169.8C142.156 169.911 141.848 170.14 140.119 169.8L138.663 163.096C136.737 163.096 134.157 162.71 134.157 162.71C133.556 165.709 133.14 166.199 132.557 169.399C131.394 169.109 129.651 169.402 128.488 169.009C130.592 161.425 131.605 156.089 134.01 149.138Z" fill="#7C2007"/>
<path d="M237.732 68.9269L191.592 53.0293H228.229L237.732 68.9269ZM240.448 17.748V67.957L251.4 52.7394L240.448 17.748ZM238.895 70.8631L222.9 76.4857L211.093 111.796L238.895 70.8631ZM240.738 71.2533V89.6705L270.01 111.674L240.738 71.2533ZM289.88 52.9326L241.611 69.8968L257.895 75.616L289.88 52.9326Z" fill="#7C2007"/>
<path d="M210.725 114.333C210.263 114.333 209.801 114.19 209.408 113.904C208.628 113.331 208.302 112.322 208.606 111.398L220.016 76.8221L189.308 54.74C188.521 54.1745 188.192 53.1653 188.489 52.2419C188.786 51.3185 189.645 50.6958 190.615 50.6958C190.615 50.6958 190.615 50.6958 190.618 50.6958L227.371 50.7387L238.505 16.1876C238.802 15.2606 239.754 14.6916 240.645 14.6415C241.622 14.6486 242.477 15.2893 242.764 16.2198L253.329 50.7387L290.643 50.6958C290.643 50.6958 290.643 50.6958 290.646 50.6958C291.616 50.6958 292.475 51.3185 292.772 52.2419C293.069 53.1653 292.74 54.1745 291.949 54.74L261.242 76.8221L272.655 111.398C272.959 112.318 272.633 113.331 271.853 113.904C271.069 114.473 270.01 114.476 269.223 113.907L240.631 93.1743L212.038 113.907C211.645 114.19 211.187 114.333 210.725 114.333ZM197.554 55.1695L223.953 74.1522C224.744 74.7213 225.076 75.7377 224.769 76.6646L215.012 106.227L239.313 88.6076C240.097 88.0421 241.153 88.0421 241.937 88.6076L266.238 106.227L256.478 76.6646C256.17 75.7377 256.503 74.7213 257.294 74.1522L283.696 55.1695L251.675 55.2088C251.675 55.2088 251.675 55.2088 251.672 55.2088C250.691 55.2088 249.821 54.5682 249.535 53.6305L240.566 24.3261L231.114 53.6627C230.817 54.5825 229.958 55.2088 228.988 55.2088C228.988 55.2088 228.988 55.2088 228.985 55.2088L197.554 55.1695Z" fill="#7C2007"/>
<path d="M250.226 385.42C249.939 385.42 249.649 385.345 249.385 385.191C248.587 384.726 248.315 383.699 248.783 382.901C250.984 379.129 253.515 376.67 256.747 375.156C257.588 374.766 258.583 375.127 258.976 375.965C259.37 376.802 259.005 377.801 258.167 378.191C255.58 379.401 253.518 381.433 251.679 384.587C251.364 385.123 250.802 385.42 250.226 385.42ZM350.111 347.634C349.441 347.634 348.582 347.62 347.111 347.577C346.184 347.552 345.458 346.779 345.487 345.855C345.515 344.928 346.303 344.159 347.208 344.23C349.745 344.302 350.354 344.291 351.46 344.266C352.24 344.248 353.249 344.227 355.304 344.227C356.231 344.227 356.979 344.975 356.979 345.902C356.979 346.829 356.231 347.577 355.304 347.577C353.289 347.577 352.297 347.598 351.531 347.616C351.037 347.627 350.629 347.634 350.111 347.634ZM165.233 146.383C164.041 146.383 162.853 146.375 161.668 146.368C160.544 146.361 159.435 146.354 158.34 146.354C157.413 146.354 156.665 145.606 156.665 144.679C156.665 143.752 157.413 143.004 158.34 143.004C159.439 143.004 160.555 143.011 161.686 143.018C169.374 143.058 177.33 143.108 183.876 141.24C184.767 140.985 185.694 141.501 185.944 142.392C186.198 143.283 185.683 144.21 184.792 144.461C178.836 146.161 172.015 146.383 165.233 146.383ZM159.503 160.079C158.576 160.079 157.828 159.331 157.828 158.404C157.828 157.477 158.576 156.729 159.503 156.729C163.597 156.729 168.171 156.475 171.739 156.049C172.648 155.935 173.489 156.593 173.6 157.513C173.711 158.433 173.053 159.263 172.137 159.374C168.443 159.818 163.719 160.079 159.503 160.079ZM231.622 150.931C231.046 150.931 230.484 150.634 230.173 150.101C225.527 142.141 216.007 140.542 202.153 140.542C199.533 140.542 196.481 140.857 192.261 141.558C191.352 141.705 190.486 141.096 190.332 140.18C190.178 139.268 190.797 138.405 191.71 138.251C196.119 137.517 199.344 137.188 202.153 137.188C213.942 137.188 227.027 138.054 233.068 148.408C233.533 149.206 233.265 150.233 232.467 150.699C232.199 150.856 231.909 150.931 231.622 150.931ZM159.503 175.898C158.576 175.898 157.828 175.15 157.828 174.223C157.828 173.296 158.576 172.548 159.503 172.548C171.21 172.548 181.105 170.873 188.417 169.413C189.333 169.234 190.207 169.821 190.389 170.727C190.572 171.632 189.981 172.516 189.076 172.699C181.61 174.191 171.503 175.898 159.503 175.898ZM231.622 165.197C231.046 165.197 230.484 164.9 230.173 164.367C225.356 156.114 215.968 154.496 201.377 154.496C198.134 154.496 195.124 155.205 191.638 156.028C188.324 156.812 184.57 157.696 179.792 158.175C178.883 158.261 178.053 157.595 177.96 156.676C177.867 155.756 178.539 154.936 179.459 154.843C184.012 154.389 187.655 153.526 190.869 152.767C194.559 151.898 197.744 151.146 201.377 151.146C214.007 151.146 226.855 152.037 233.065 162.677C233.53 163.476 233.261 164.503 232.463 164.968C232.199 165.125 231.909 165.197 231.622 165.197ZM221.519 170.608C221.78 169.721 221.268 168.79 220.381 168.533C215.664 167.155 210.088 166.969 205.256 166.969C203.653 166.969 200.843 167.441 198.367 167.856C197.493 168.003 196.699 168.135 196.098 168.225C195.181 168.357 194.548 169.205 194.68 170.122C194.813 171.038 195.668 171.675 196.577 171.539C197.2 171.449 198.016 171.313 198.921 171.16C201.037 170.805 203.932 170.319 205.256 170.319C209.852 170.319 215.131 170.487 219.443 171.747C219.601 171.793 219.758 171.815 219.912 171.815C220.635 171.811 221.304 171.339 221.519 170.608ZM232.463 180.787C233.261 180.322 233.533 179.295 233.065 178.496C231.733 176.217 230.227 174.363 228.455 172.82C227.761 172.215 226.701 172.287 226.093 172.985C225.484 173.683 225.56 174.739 226.257 175.347C227.746 176.643 229.028 178.224 230.169 180.182C230.481 180.715 231.043 181.012 231.619 181.012C231.909 181.016 232.199 180.944 232.463 180.787ZM140.896 220.481C140.889 220.481 140.882 220.481 140.875 220.481L121.487 220.256C120.564 220.245 119.82 219.486 119.83 218.559C119.841 217.643 120.589 216.902 121.505 216.902C121.512 216.902 121.52 216.902 121.527 216.902L140.914 217.128C141.837 217.138 142.578 217.897 142.571 218.824C142.56 219.744 141.812 220.481 140.896 220.481ZM231.622 209.862C231.046 209.862 230.484 209.565 230.173 209.032C225.331 200.732 216.319 199.161 201.377 199.161C198.37 199.161 195.239 199.698 190.905 200.439C186.102 201.259 180.125 202.282 171.353 203.12C170.444 203.213 169.613 202.533 169.528 201.613C169.438 200.693 170.115 199.873 171.034 199.788C179.685 198.964 185.593 197.952 190.343 197.139C194.838 196.37 198.088 195.815 201.38 195.815C215.037 195.815 226.848 196.681 233.068 207.346C233.533 208.144 233.265 209.172 232.467 209.637C232.199 209.791 231.909 209.862 231.622 209.862ZM231.622 195.597C231.046 195.597 230.484 195.3 230.173 194.766C228.612 192.089 223.938 188.038 221.111 186.467C220.302 186.016 220.012 184.999 220.46 184.191C220.911 183.382 221.931 183.092 222.736 183.539C225.678 185.175 231.028 189.595 233.061 193.077C233.526 193.875 233.258 194.902 232.46 195.368C232.199 195.521 231.909 195.597 231.622 195.597ZM147.889 190.085C146.98 190.085 146.236 189.359 146.214 188.446C146.196 187.523 146.927 186.757 147.853 186.735C174.778 186.159 185.211 184.097 192.114 182.734C195.615 182.043 198.145 181.542 201.373 181.542C207.182 181.542 211.351 181.768 214.884 182.279C215.8 182.412 216.433 183.26 216.301 184.176C216.168 185.092 215.324 185.729 214.404 185.593C211.033 185.107 207.013 184.892 201.369 184.892C198.467 184.892 196.073 185.364 192.759 186.019C185.74 187.404 175.136 189.498 147.918 190.081C147.914 190.085 147.904 190.085 147.889 190.085ZM139.361 190.21C140.284 190.203 141.028 189.448 141.021 188.521C141.014 187.601 140.266 186.86 139.346 186.86C139.343 186.86 139.336 186.86 139.332 186.86C133.799 186.907 127.808 186.893 121.527 186.817C120.639 186.86 119.845 187.548 119.83 188.475C119.82 189.398 120.56 190.157 121.487 190.171C125.371 190.217 129.143 190.239 132.768 190.239C135.027 190.235 137.228 190.228 139.361 190.21ZM148.705 220.409C165.766 220.059 178.704 218.162 189.097 216.637C198.195 215.302 204.769 214.34 209.673 215.098C210.589 215.241 211.444 214.615 211.584 213.699C211.727 212.786 211.101 211.931 210.184 211.788C204.784 210.95 197.998 211.945 188.611 213.323C178.307 214.833 165.487 216.712 148.634 217.06C147.707 217.077 146.973 217.843 146.995 218.767C147.012 219.679 147.76 220.409 148.669 220.409C148.684 220.409 148.695 220.409 148.705 220.409ZM231.619 225.681C230.992 225.681 230.388 225.327 230.105 224.722C228.448 221.208 225.033 216.831 218.18 215.921C217.264 215.8 216.619 214.959 216.741 214.039C216.863 213.123 217.704 212.482 218.624 212.6C226.973 213.71 231.125 219.028 233.136 223.291C233.53 224.128 233.172 225.127 232.338 225.52C232.102 225.631 231.859 225.681 231.619 225.681ZM134.304 204.573C134.3 204.573 134.293 204.573 134.289 204.573L133.23 204.565C129.959 204.54 124.376 204.497 121.473 204.433C120.55 204.415 119.816 203.646 119.834 202.722C119.855 201.799 120.628 201.033 121.545 201.083C124.436 201.148 129.998 201.187 133.255 201.212L134.314 201.219C135.238 201.226 135.982 201.981 135.975 202.908C135.968 203.832 135.22 204.573 134.304 204.573ZM137.739 236.923C132.568 236.923 127.121 236.848 121.462 236.694C120.539 236.669 119.809 235.899 119.834 234.972C119.859 234.049 120.607 233.297 121.555 233.344C129.808 233.566 137.611 233.627 144.751 233.523C145.724 233.494 146.436 234.249 146.451 235.173C146.465 236.1 145.724 236.858 144.801 236.873C142.51 236.905 140.155 236.923 137.739 236.923ZM140.892 204.565C139.976 204.565 139.228 203.825 139.217 202.908C139.207 201.985 139.951 201.226 140.875 201.216C148.938 201.133 156.468 200.865 163.25 200.41C164.199 200.353 164.972 201.047 165.032 201.971C165.093 202.894 164.395 203.692 163.472 203.753C156.629 204.211 149.035 204.483 140.907 204.565C140.903 204.565 140.896 204.565 140.892 204.565ZM127.997 252.538C125.868 252.538 123.699 252.531 121.495 252.513C120.568 252.505 119.823 251.75 119.83 250.827C119.837 249.907 120.585 249.163 121.505 249.163C121.509 249.163 121.512 249.163 121.516 249.163C137.539 249.281 151.593 248.966 163.286 248.232C164.206 248.175 165.004 248.873 165.061 249.8C165.118 250.723 164.417 251.518 163.493 251.575C153.34 252.216 141.422 252.538 127.997 252.538ZM231.622 242.123C231.046 242.123 230.484 241.826 230.173 241.293C225.019 232.46 215.954 229.436 201.649 231.787C200.736 231.941 199.873 231.318 199.723 230.405C199.573 229.493 200.192 228.63 201.105 228.48C216.745 225.917 227.199 229.55 233.065 239.603C233.53 240.401 233.261 241.429 232.463 241.894C232.199 242.048 231.909 242.123 231.622 242.123ZM151.751 236.712C150.849 236.712 150.105 235.996 150.076 235.09C150.047 234.167 150.774 233.394 151.697 233.362C164.957 232.943 178.704 231.511 192.558 229.103C193.467 228.949 194.337 229.554 194.494 230.466C194.652 231.379 194.043 232.245 193.131 232.403C179.123 234.836 165.215 236.286 151.801 236.708C151.787 236.712 151.769 236.712 151.751 236.712ZM169.696 251.128C178.933 250.376 184.942 249.445 190.246 248.629C196.953 247.595 202.253 246.776 211.262 246.776C212.189 246.776 212.937 246.028 212.937 245.101C212.937 244.174 212.189 243.426 211.262 243.426C201.996 243.426 196.584 244.26 189.734 245.319C184.488 246.128 178.539 247.048 169.424 247.788C168.504 247.864 167.817 248.672 167.892 249.596C167.964 250.473 168.697 251.135 169.56 251.135C169.606 251.131 169.649 251.131 169.696 251.128ZM121.509 268.332C120.582 268.332 119.834 267.584 119.834 266.657C119.834 265.73 120.582 264.982 121.509 264.982C126.62 264.982 131.566 264.946 136.208 264.871C137.156 264.924 137.893 265.594 137.908 266.521C137.922 267.448 137.185 268.206 136.258 268.221C131.598 268.292 126.634 268.332 121.509 268.332ZM143.229 268.081C142.303 268.081 141.555 267.333 141.555 266.406C141.555 265.479 142.303 264.731 143.229 264.731C169.241 264.731 186.438 261.9 194.705 260.537L194.902 260.504C195.808 260.354 196.677 260.973 196.828 261.886C196.978 262.799 196.359 263.661 195.446 263.811L195.249 263.844C186.896 265.218 169.513 268.081 143.229 268.081ZM231.619 257.938C230.935 257.938 230.291 257.516 230.044 256.832C229.754 256.031 226.984 248.959 219.064 247.717C218.151 247.574 217.525 246.718 217.668 245.802C217.811 244.889 218.667 244.27 219.583 244.406C227.041 245.577 231.576 251.217 233.193 255.694C233.508 256.564 233.057 257.523 232.188 257.838C232.002 257.91 231.808 257.938 231.619 257.938ZM232.463 273.532C233.261 273.067 233.533 272.039 233.065 271.241C227.102 261.023 219.103 257.77 203.545 259.252C202.626 259.341 201.949 260.157 202.035 261.077C202.125 261.997 202.948 262.677 203.86 262.587C218.23 261.224 224.865 263.833 230.173 272.931C230.484 273.464 231.046 273.761 231.622 273.761C231.909 273.757 232.199 273.686 232.463 273.532ZM153.265 283.914C154.188 283.861 154.893 283.073 154.843 282.146C154.789 281.223 153.999 280.511 153.075 280.568C143.952 281.083 133.301 281.345 121.416 281.345C120.489 281.345 119.741 282.093 119.741 283.02C119.741 283.947 120.489 284.695 121.416 284.695C133.366 284.698 144.081 284.433 153.265 283.914ZM160.72 283.374C162.144 283.252 163.544 283.145 164.925 283.041C170.254 282.64 175.286 282.264 180.186 281.001C181.08 280.768 181.621 279.856 181.388 278.961C181.156 278.066 180.243 277.526 179.348 277.759C174.739 278.947 169.85 279.315 164.671 279.705C163.279 279.809 161.865 279.917 160.43 280.038C159.507 280.117 158.827 280.929 158.905 281.853C158.98 282.726 159.714 283.385 160.573 283.385C160.623 283.377 160.673 283.377 160.72 283.374ZM121.419 301.831C120.492 301.831 119.744 301.083 119.744 300.156C119.744 299.229 120.492 298.481 121.419 298.481C124.261 298.481 126.992 298.456 129.622 298.413C130.542 298.398 131.312 299.136 131.326 300.059C131.34 300.986 130.603 301.745 129.68 301.763C127.031 301.805 124.279 301.831 121.419 301.831ZM231.529 288.574C230.953 288.574 230.391 288.277 230.08 287.744C225.062 279.144 219.54 276.789 204.387 276.789C201.033 276.789 192.121 278.539 187.877 279.466C186.971 279.659 186.08 279.09 185.883 278.184C185.687 277.283 186.259 276.388 187.165 276.191C191.853 275.167 200.754 273.439 204.387 273.439C220.653 273.439 227.331 276.388 232.972 286.058C233.437 286.856 233.168 287.883 232.37 288.349C232.109 288.499 231.819 288.574 231.529 288.574ZM139.328 301.551L139.826 301.533C154.857 300.993 164.785 300.632 175.347 298.216C176.249 298.008 176.814 297.113 176.607 296.208C176.399 295.306 175.504 294.741 174.599 294.948C164.349 297.292 154.543 297.647 139.704 298.184L139.207 298.201C138.283 298.234 137.56 299.01 137.593 299.937C137.625 300.843 138.369 301.551 139.264 301.551C139.289 301.555 139.311 301.555 139.328 301.551ZM121.419 319.664C120.492 319.664 119.744 318.916 119.744 317.989C119.744 317.063 120.492 316.315 121.419 316.315C130.76 316.315 139.597 316.05 147.678 315.531C148.627 315.506 149.4 316.171 149.457 317.095C149.518 318.018 148.816 318.813 147.893 318.873C139.736 319.4 130.828 319.664 121.419 319.664ZM154.843 318.344C153.984 318.344 153.254 317.685 153.179 316.816C153.097 315.896 153.78 315.08 154.7 315.001C171.553 313.53 181.947 311.157 189.534 309.421C191.742 308.92 193.685 308.473 195.45 308.129C196.363 307.968 197.239 308.545 197.415 309.454C197.59 310.359 197 311.24 196.091 311.419C194.355 311.755 192.447 312.192 190.278 312.689C182.594 314.443 172.072 316.848 154.99 318.337C154.94 318.34 154.893 318.344 154.843 318.344ZM231.529 305.399C230.953 305.399 230.391 305.102 230.08 304.568C228.405 301.695 227.177 300.728 225.144 299.128L224.672 298.756C223.945 298.184 223.824 297.128 224.4 296.405C224.976 295.678 226.032 295.557 226.751 296.129L227.217 296.498C229.317 298.151 230.978 299.458 232.975 302.883C233.44 303.681 233.172 304.708 232.37 305.173C232.109 305.324 231.816 305.399 231.529 305.399ZM181.875 297.042C181.088 297.042 180.386 296.484 180.232 295.682C180.057 294.773 180.655 293.896 181.564 293.721C184.774 293.109 187.562 292.507 190.028 291.978C195.403 290.825 199.29 289.988 202.84 289.988L204.286 289.984C210.392 289.966 215.66 289.952 220.696 292.665C221.508 293.105 221.816 294.121 221.376 294.934C220.939 295.746 219.923 296.058 219.107 295.614C214.819 293.305 209.948 293.316 204.297 293.334L202.84 293.338C199.648 293.338 195.908 294.139 190.733 295.249C188.242 295.782 185.429 296.387 182.193 297.006C182.083 297.035 181.979 297.042 181.875 297.042ZM232.374 322.538C233.172 322.073 233.444 321.046 232.979 320.248C227.184 310.316 216.737 305.986 201.91 307.371C200.99 307.457 200.314 308.273 200.4 309.196C200.485 310.116 201.301 310.789 202.225 310.706C215.635 309.461 225.008 313.229 230.087 321.937C230.398 322.47 230.96 322.767 231.536 322.767C231.816 322.767 232.109 322.692 232.374 322.538ZM127.729 335.913C128.652 335.902 129.393 335.143 129.383 334.216C129.372 333.289 128.627 332.581 127.686 332.559C125.682 332.584 123.624 332.595 121.505 332.595C120.578 332.595 119.83 333.343 119.83 334.27C119.83 335.197 120.578 335.945 121.505 335.945C123.638 335.949 125.711 335.934 127.729 335.913ZM162.813 334.109C164.517 333.855 166.253 333.594 168.214 333.347C169.13 333.229 169.782 332.391 169.664 331.475C169.549 330.559 168.712 329.907 167.792 330.025C165.805 330.276 164.045 330.541 162.32 330.799C156.124 331.725 150.276 332.599 135.467 332.599C134.54 332.599 133.792 333.347 133.792 334.274C133.792 335.201 134.54 335.949 135.467 335.949C150.523 335.949 156.493 335.054 162.813 334.109ZM232.463 338.357C233.261 337.892 233.533 336.865 233.065 336.067C227.077 325.802 219.168 324.07 203.703 324.07C200.196 324.07 196.273 324.89 190.844 326.028C187.204 326.79 182.673 327.739 177.176 328.651C176.263 328.801 175.648 329.664 175.798 330.577C175.952 331.489 176.818 332.105 177.723 331.955C183.289 331.031 187.859 330.076 191.527 329.306C196.76 328.211 200.539 327.42 203.699 327.42C219.747 327.42 225.434 329.643 230.169 337.752C230.481 338.286 231.043 338.583 231.619 338.583C231.909 338.586 232.199 338.511 232.463 338.357ZM231.622 384.49C231.046 384.49 230.484 384.193 230.173 383.66L229.869 383.137C228.53 380.807 227.009 378.166 222.525 376.563C221.651 376.251 221.2 375.292 221.512 374.422C221.823 373.553 222.782 373.098 223.652 373.409C229.3 375.428 231.307 378.917 232.775 381.469L233.065 381.974C233.53 382.772 233.261 383.796 232.463 384.264C232.199 384.418 231.909 384.49 231.622 384.49ZM263.321 375.732C262.62 375.732 261.965 375.288 261.732 374.587C261.439 373.71 261.915 372.762 262.791 372.468C264.42 371.924 265.486 371.538 266.249 371.259C268.396 370.475 268.579 370.443 271.077 370.443C272.004 370.443 272.752 371.191 272.752 372.117C272.752 373.044 272.004 373.792 271.077 373.792C269.072 373.792 269.072 373.792 267.401 374.404C266.617 374.691 265.526 375.092 263.854 375.646C263.675 375.704 263.496 375.732 263.321 375.732ZM166.428 367.98C165.576 367.98 164.85 367.332 164.764 366.47C164.675 365.55 165.347 364.731 166.267 364.637L167.259 364.544C169.556 364.333 171.729 364.129 173.876 363.213C174.724 362.848 175.712 363.242 176.073 364.09C176.439 364.942 176.045 365.926 175.193 366.291C172.559 367.418 170.021 367.651 167.563 367.88L166.593 367.973C166.539 367.977 166.482 367.98 166.428 367.98ZM231.622 354.405C231.046 354.405 230.484 354.108 230.173 353.575C225.495 345.558 216.977 344.538 212.303 344.663C211.387 344.624 210.61 343.955 210.589 343.028C210.567 342.101 211.297 341.335 212.221 341.313C221.401 341.095 229.017 344.943 233.065 351.889C233.53 352.687 233.261 353.711 232.463 354.18C232.199 354.33 231.909 354.405 231.622 354.405ZM140.037 352.795C139.132 352.795 138.387 352.072 138.362 351.163C138.337 350.236 139.071 349.47 139.994 349.445C144.586 349.33 149.038 349.141 153.233 348.887C154.156 348.854 154.951 349.534 155.008 350.458C155.065 351.381 154.36 352.176 153.437 352.233C149.206 352.491 144.711 352.68 140.08 352.798C140.066 352.795 140.051 352.795 140.037 352.795ZM231.644 370.224C231.068 370.224 230.506 369.927 230.194 369.394C225.252 360.919 219.225 359.992 207.579 359.992C204.49 359.992 199.856 361.112 193.99 362.529C190.439 363.385 186.42 364.358 181.868 365.3C180.955 365.489 180.075 364.906 179.889 364C179.703 363.095 180.282 362.207 181.191 362.021C185.69 361.091 189.681 360.124 193.206 359.276C199.526 357.748 204.097 356.646 207.583 356.646C219.092 356.646 227.084 357.415 233.093 367.712C233.559 368.51 233.29 369.537 232.488 370.002C232.22 370.149 231.93 370.224 231.644 370.224ZM160.176 351.546C159.328 351.546 158.601 350.905 158.512 350.043C158.419 349.123 159.088 348.3 160.008 348.207C175.494 346.617 184.777 344.552 191.56 343.046C196.563 341.933 200.178 341.131 203.728 341.131C204.655 341.131 205.403 341.879 205.403 342.806C205.403 343.733 204.655 344.481 203.728 344.481C200.543 344.481 197.078 345.25 192.286 346.317C185.425 347.841 176.027 349.932 160.351 351.542C160.29 351.542 160.233 351.546 160.176 351.546ZM181.098 381.43C180.329 381.43 179.638 380.897 179.463 380.116C179.262 379.215 179.831 378.32 180.737 378.119C185.508 377.064 189.634 375.954 193.277 374.977C199.168 373.395 203.821 372.143 207.579 372.143C208.631 372.143 209.68 372.064 210.693 371.992C213.069 371.82 215.309 371.652 217.478 372.425C218.352 372.737 218.806 373.692 218.495 374.565C218.183 375.435 217.224 375.893 216.355 375.582C214.851 375.049 213.037 375.181 210.936 375.335C209.862 375.414 208.753 375.496 207.575 375.496C204.258 375.496 199.795 376.695 194.14 378.216C190.464 379.204 186.299 380.324 181.456 381.394C181.338 381.419 181.216 381.43 181.098 381.43ZM251.221 352.065C250.934 352.065 250.644 351.989 250.38 351.836C249.581 351.37 249.309 350.343 249.778 349.545C254.009 342.294 263.747 339.646 271.452 339.585C272.387 339.613 273.135 340.322 273.142 341.245C273.149 342.172 272.404 342.928 271.481 342.935C264.695 342.988 256.192 345.197 252.67 351.234C252.355 351.768 251.793 352.065 251.221 352.065ZM250.136 319.976C249.85 319.976 249.56 319.901 249.295 319.747C248.497 319.281 248.225 318.254 248.694 317.456C254.8 306.988 264.151 306.233 278.832 306.233C281.448 306.233 283.896 306.752 286.151 307.31C287.049 307.532 287.597 308.441 287.375 309.339C287.153 310.237 286.241 310.796 285.346 310.563C283.299 310.055 281.091 309.586 278.832 309.586C262.577 309.586 256.36 310.968 251.589 319.145C251.274 319.679 250.712 319.976 250.136 319.976ZM313.841 316.458C313.77 316.458 313.698 316.454 313.627 316.443C304.923 315.33 295.231 313.326 290.84 312.249C289.941 312.031 289.39 311.121 289.612 310.223C289.834 309.325 290.736 308.77 291.638 308.996C295.954 310.055 305.488 312.027 314.053 313.122C314.969 313.24 315.62 314.078 315.502 314.994C315.391 315.842 314.672 316.458 313.841 316.458ZM250.136 305.707C249.85 305.707 249.56 305.631 249.295 305.477C248.497 305.012 248.225 303.985 248.694 303.187C252.266 297.06 256.911 293.552 263.751 291.813C264.656 291.588 265.558 292.128 265.787 293.023C266.012 293.921 265.472 294.83 264.577 295.059C258.597 296.58 254.714 299.515 251.586 304.873C251.274 305.409 250.712 305.707 250.136 305.707ZM337.752 302.045C337.724 302.045 337.692 302.045 337.663 302.042C313.963 300.785 300.381 297.683 291.394 295.628C286.377 294.483 282.751 293.653 279.605 293.653C276.424 293.653 273.7 293.76 271.284 293.975C270.347 294.057 269.548 293.381 269.466 292.457C269.384 291.537 270.06 290.721 270.984 290.639C273.5 290.414 276.32 290.303 279.605 290.303C283.127 290.303 286.906 291.165 292.139 292.364C301.015 294.393 314.425 297.457 337.842 298.699C338.765 298.749 339.474 299.536 339.424 300.46C339.377 301.351 338.636 302.045 337.752 302.045ZM339.313 284.619C328.139 284.619 327.928 284.587 325.355 284.197C324.274 284.032 322.792 283.807 319.775 283.492C318.856 283.395 318.186 282.569 318.287 281.649C318.383 280.729 319.221 280.063 320.13 280.16C323.222 280.486 324.743 280.718 325.856 280.887C328.2 281.241 328.39 281.269 339.313 281.269C340.24 281.269 340.988 282.017 340.988 282.944C340.988 283.871 340.24 284.619 339.313 284.619ZM351.757 317.063C351.757 316.136 351.009 315.388 350.082 315.388C336.085 315.388 332.477 315.03 325.287 314.317L321.64 313.963C320.706 313.884 319.901 314.554 319.815 315.47C319.725 316.39 320.402 317.209 321.325 317.295L324.958 317.649C332.255 318.372 335.92 318.734 350.082 318.734C351.005 318.737 351.757 317.989 351.757 317.063ZM250.226 336.103C249.939 336.103 249.649 336.027 249.385 335.873C248.587 335.408 248.315 334.381 248.783 333.583C254.785 323.29 262.956 323.29 274.269 323.29C275.196 323.29 275.944 324.038 275.944 324.965C275.944 325.892 275.196 326.64 274.269 326.64C262.412 326.64 256.496 327.005 251.679 335.269C251.364 335.805 250.802 336.103 250.226 336.103ZM321.457 331.851C321.432 331.851 321.407 331.851 321.379 331.851C313.741 331.504 305.979 330.269 299.128 329.181C292.79 328.175 287.307 327.309 283.617 327.395C283.603 327.395 283.589 327.395 283.574 327.395C282.669 327.395 281.924 326.672 281.899 325.759C281.878 324.836 282.608 324.067 283.535 324.045C287.543 323.956 293.159 324.84 299.655 325.87C306.415 326.944 314.081 328.164 321.529 328.501C322.452 328.544 323.168 329.328 323.125 330.251C323.089 331.149 322.349 331.851 321.457 331.851ZM251.725 368.771C256.26 360.998 260.991 360.128 270.708 360.006C271.635 359.996 272.372 359.233 272.361 358.31C272.351 357.383 271.61 356.667 270.665 356.656C261.081 356.782 254.381 357.573 248.833 367.085C248.368 367.884 248.637 368.907 249.435 369.376C249.7 369.533 249.989 369.605 250.276 369.605C250.852 369.601 251.414 369.304 251.725 368.771ZM348.275 333.472H349.395C350.318 333.472 351.07 332.72 351.07 331.797C351.07 330.874 350.322 330.122 349.395 330.122H348.275C338.304 330.126 338.307 330.129 332.785 329.546L329.184 329.174C328.275 329.07 327.441 329.75 327.352 330.673C327.259 331.593 327.928 332.416 328.852 332.506L332.438 332.878C337.595 333.422 338.085 333.472 345.658 333.472C346.446 333.472 347.315 333.472 348.275 333.472ZM251.675 241.6C256.07 234.067 262.806 231.168 277.415 230.52C278.338 230.477 279.054 229.697 279.015 228.773C278.972 227.85 278.195 227.149 277.268 227.174C261.514 227.875 253.794 231.325 248.783 239.915C248.318 240.713 248.587 241.74 249.385 242.205C249.649 242.359 249.939 242.434 250.226 242.434C250.802 242.431 251.364 242.134 251.675 241.6ZM334.879 235.913C334.879 234.987 334.131 234.239 333.204 234.239C314.16 234.239 303.48 231.307 295.682 229.167C291.33 227.975 287.894 227.031 284.469 227.031C283.542 227.031 282.794 227.779 282.794 228.705C282.794 229.632 283.542 230.38 284.469 230.38C287.443 230.38 290.689 231.272 294.794 232.399C302.779 234.589 313.709 237.592 333.204 237.592C334.127 237.588 334.879 236.837 334.879 235.913ZM250.226 258.25C249.939 258.25 249.649 258.175 249.385 258.021C248.587 257.555 248.315 256.528 248.783 255.73C254.402 246.096 263.407 242.846 284.469 242.846C287.819 242.846 291.079 243.658 295.206 244.689C297.747 245.323 300.628 246.042 304.175 246.743C305.08 246.922 305.674 247.806 305.492 248.712C305.313 249.617 304.425 250.208 303.523 250.029C299.898 249.309 296.977 248.579 294.397 247.939C290.339 246.926 287.407 246.196 284.473 246.196C264.606 246.196 256.636 248.923 251.679 257.419C251.364 257.953 250.802 258.25 250.226 258.25ZM340.956 237.47C340.047 237.47 339.299 236.744 339.281 235.831C339.263 234.908 339.996 234.142 340.92 234.12L344.821 234.049C349.631 233.967 356.216 233.852 360.257 233.655C361.173 233.594 361.968 234.321 362.011 235.248C362.053 236.171 361.341 236.959 360.418 237.001C356.324 237.202 349.706 237.316 344.875 237.399L340.984 237.47C340.977 237.47 340.966 237.47 340.956 237.47ZM250.226 274.069C249.939 274.069 249.649 273.993 249.385 273.84C248.587 273.374 248.315 272.347 248.783 271.549C252.502 265.175 257.677 261.732 266.084 260.036C266.997 259.849 267.873 260.44 268.056 261.345C268.239 262.251 267.652 263.135 266.746 263.317C259.273 264.824 254.907 267.698 251.675 273.235C251.364 273.772 250.802 274.069 250.226 274.069ZM342.337 253.253C331.915 253.253 322.724 252.76 314.521 251.772C313.605 251.661 312.95 250.827 313.061 249.907C313.172 248.987 314.003 248.332 314.926 248.443C327.388 249.95 342.223 250.287 360.264 249.471C361.173 249.456 361.971 250.143 362.014 251.067C362.053 251.99 361.341 252.774 360.418 252.817C354.004 253.11 347.992 253.253 342.337 253.253ZM250.136 288.885C249.85 288.885 249.56 288.81 249.295 288.656C248.497 288.191 248.225 287.164 248.694 286.366C253.891 277.454 263.185 273.482 278.832 273.482C279.759 273.482 280.507 274.23 280.507 275.157C280.507 276.084 279.759 276.832 278.832 276.832C264.52 276.832 256.117 280.292 251.589 288.055C251.274 288.588 250.712 288.885 250.136 288.885ZM341.482 268.353C339.295 268.353 338.239 268.314 333.884 268.128C332.96 268.088 332.244 267.304 332.284 266.381C332.323 265.458 333.103 264.753 334.03 264.781C339.456 265.017 339.606 265.014 343.522 265C344.896 264.992 346.725 264.985 349.398 264.985C350.325 264.985 351.073 265.733 351.073 266.66C351.073 267.587 350.325 268.335 349.398 268.335C346.732 268.335 344.907 268.342 343.536 268.349C342.716 268.353 342.058 268.353 341.482 268.353ZM325.452 267.669C325.416 267.669 325.376 267.669 325.341 267.666C308.101 266.539 299.465 264.642 293.749 263.385C289.991 262.559 287.511 262.015 284.465 262.015C281.237 262.015 278.439 262.086 275.912 262.233C275.01 262.305 274.197 261.582 274.144 260.658C274.09 259.735 274.795 258.944 275.719 258.89C278.31 258.74 281.173 258.668 284.465 258.668C287.873 258.668 290.639 259.277 294.469 260.118C300.084 261.353 308.57 263.217 325.555 264.327C326.479 264.388 327.177 265.186 327.119 266.105C327.062 266.989 326.325 267.669 325.452 267.669ZM312.263 280.904C312.392 279.988 311.759 279.14 310.842 279.008C302.675 277.834 296.562 276.524 291.652 275.468L290.174 275.153C289.265 274.96 288.377 275.54 288.184 276.441C287.991 277.347 288.567 278.235 289.472 278.428L290.951 278.743C295.911 279.806 302.085 281.133 310.366 282.322C310.445 282.332 310.527 282.34 310.606 282.34C311.426 282.343 312.145 281.738 312.263 280.904ZM250.226 195.904C249.939 195.904 249.649 195.829 249.385 195.675C248.587 195.21 248.315 194.183 248.783 193.385C254.402 183.75 263.407 180.501 284.469 180.501C287.751 180.501 290.242 181.32 293.391 182.355C294.043 182.569 294.726 182.795 295.46 183.027C296.344 183.307 296.831 184.248 296.552 185.128C296.272 186.009 295.328 186.499 294.451 186.22C293.703 185.984 293.005 185.755 292.343 185.536C289.365 184.556 287.211 183.851 284.465 183.851C264.599 183.851 256.632 186.578 251.672 195.074C251.364 195.607 250.802 195.904 250.226 195.904ZM250.226 180.941C249.939 180.941 249.649 180.866 249.385 180.712C248.587 180.247 248.315 179.219 248.783 178.421C254.03 169.424 262.101 166.07 279.627 165.598C280.572 165.548 281.323 166.303 281.348 167.226C281.373 168.15 280.643 168.919 279.72 168.944C263.568 169.377 256.231 172.301 251.679 180.107C251.364 180.644 250.802 180.941 250.226 180.941ZM344.839 176.048C309.983 176.048 299.712 173.11 292.912 171.167C290.281 170.415 288.205 169.821 285.385 169.613C284.462 169.545 283.771 168.74 283.839 167.82C283.907 166.897 284.677 166.203 285.632 166.274C288.796 166.507 291.129 167.176 293.832 167.949C300.449 169.843 310.452 172.702 344.839 172.702C345.766 172.702 346.514 173.45 346.514 174.377C346.514 175.3 345.766 176.048 344.839 176.048ZM353.357 175.812C352.458 175.812 351.717 175.104 351.685 174.198C351.653 173.275 352.372 172.498 353.299 172.462C355.533 172.38 357.852 172.28 360.257 172.165C361.223 172.104 361.968 172.831 362.011 173.758C362.053 174.681 361.341 175.469 360.418 175.512C357.995 175.63 355.665 175.73 353.417 175.812C353.4 175.809 353.378 175.812 353.357 175.812ZM337.08 160.38C323.515 160.365 312.782 159.582 304.268 157.982C303.359 157.81 302.761 156.937 302.929 156.028C303.101 155.119 303.974 154.514 304.883 154.689C313.194 156.253 323.727 157.016 337.08 157.03C338.007 157.03 338.755 157.781 338.755 158.705C338.751 159.632 338.003 160.38 337.08 160.38ZM347.917 160.24C347.011 160.24 346.267 159.517 346.242 158.608C346.22 157.685 346.95 156.915 347.874 156.89C351.796 156.79 355.966 156.633 360.253 156.421C361.169 156.371 361.964 157.087 362.007 158.014C362.05 158.937 361.338 159.725 360.414 159.768C356.098 159.979 351.907 160.136 347.956 160.24C347.949 160.24 347.935 160.24 347.917 160.24ZM250.226 210.485C249.939 210.485 249.649 210.41 249.385 210.256C248.587 209.791 248.315 208.764 248.783 207.965C251.579 203.173 256.067 199.927 262.906 197.755C263.783 197.472 264.728 197.962 265.01 198.843C265.289 199.723 264.803 200.664 263.922 200.947C257.924 202.855 254.034 205.621 251.679 209.655C251.364 210.188 250.802 210.485 250.226 210.485ZM337.412 191.091C324.564 191.091 314.135 190.386 305.85 188.972C304.937 188.818 304.325 187.952 304.479 187.039C304.636 186.127 305.506 185.518 306.412 185.669C318.938 187.809 336.553 188.285 360.257 187.129C361.173 187.068 361.968 187.795 362.011 188.721C362.053 189.645 361.341 190.432 360.418 190.475C352.015 190.887 344.359 191.091 337.412 191.091ZM250.226 226.304C249.939 226.304 249.649 226.229 249.385 226.075C248.587 225.61 248.315 224.583 248.783 223.784C254.452 214.064 273.045 207.028 290.661 212.482C291.545 212.754 292.039 213.695 291.763 214.576C291.491 215.46 290.553 215.95 289.669 215.682C274.015 210.836 256.704 216.856 251.675 225.47C251.364 226.003 250.802 226.304 250.226 226.304ZM356.302 220.957C355.207 220.957 354.105 220.943 353.024 220.932C351.231 220.911 349.506 220.893 347.967 220.932C347.952 220.932 347.938 220.932 347.92 220.932C347.018 220.932 346.274 220.213 346.245 219.304C346.22 218.38 346.95 217.611 347.874 217.582C349.452 217.539 351.224 217.561 353.06 217.579C355.465 217.607 357.948 217.636 360.257 217.521C361.173 217.453 361.968 218.191 362.011 219.114C362.053 220.037 361.341 220.825 360.418 220.868C359.076 220.939 357.691 220.957 356.302 220.957ZM343.797 205.464C333.808 205.464 323.841 205.016 313.666 204.118C312.743 204.036 312.063 203.223 312.145 202.304C312.227 201.384 313.025 200.697 313.96 200.783C329.607 202.164 344.749 202.465 360.257 201.709C361.173 201.656 361.968 202.375 362.011 203.302C362.053 204.225 361.341 205.013 360.418 205.056C354.845 205.324 349.316 205.464 343.797 205.464ZM306.837 203.349C306.787 203.349 306.737 203.345 306.684 203.341C299.529 202.69 294.147 201.248 289.823 200.088C286.362 199.161 283.632 198.428 281.248 198.428C274.083 198.428 272.336 198.692 271.141 199.294C270.314 199.705 269.309 199.372 268.893 198.542C268.478 197.715 268.815 196.71 269.641 196.295C271.603 195.317 273.879 195.078 281.244 195.078C284.068 195.078 286.989 195.861 290.686 196.853C294.887 197.98 300.12 199.38 306.984 200.006C307.904 200.088 308.584 200.904 308.502 201.824C308.423 202.697 307.693 203.349 306.837 203.349ZM341.854 219.898C341.854 218.971 341.106 218.223 340.179 218.223C315.892 218.223 305.231 216.165 298.652 214.368C297.768 214.125 296.838 214.651 296.595 215.542C296.351 216.433 296.877 217.357 297.768 217.6C304.547 219.447 315.491 221.573 340.175 221.573C341.102 221.573 341.854 220.821 341.854 219.898ZM251.675 150.101C256.127 142.471 263.071 139.565 278.209 138.988C279.133 138.953 279.856 138.176 279.82 137.253C279.784 136.329 279.011 135.599 278.084 135.642C261.796 136.261 253.858 139.722 248.787 148.415C248.322 149.213 248.59 150.241 249.388 150.706C249.653 150.86 249.943 150.935 250.229 150.935C250.802 150.931 251.364 150.634 251.675 150.101ZM329.467 144.346C329.496 143.423 328.773 142.646 327.846 142.617C308.799 142.009 295.227 138.741 287.193 136.111C286.316 135.821 285.367 136.304 285.081 137.181C284.795 138.061 285.271 139.006 286.151 139.296C294.39 141.998 308.294 145.348 327.739 145.967C327.756 145.967 327.774 145.967 327.792 145.967C328.694 145.967 329.439 145.252 329.467 144.346ZM360.421 145.502C361.345 145.459 362.057 144.672 362.014 143.748C361.968 142.825 361.173 142.095 360.26 142.156C351.524 142.582 343.432 142.789 336.31 142.761C336.307 142.761 336.307 142.761 336.303 142.761C335.38 142.761 334.632 143.509 334.628 144.432C334.624 145.355 335.372 146.111 336.296 146.114C336.675 146.114 337.055 146.114 337.437 146.114C344.359 146.114 352.086 145.907 360.421 145.502ZM251.675 164.367C256.632 155.87 264.599 153.143 284.469 153.143C287.214 153.143 289.369 153.852 292.346 154.829C293.252 155.126 294.229 155.448 295.31 155.781C296.197 156.049 297.131 155.555 297.4 154.671C297.672 153.787 297.174 152.85 296.29 152.578C295.231 152.252 294.279 151.941 293.391 151.647C290.238 150.613 287.751 149.793 284.469 149.793C263.407 149.793 254.402 153.047 248.783 162.677C248.318 163.476 248.587 164.503 249.385 164.968C249.649 165.122 249.939 165.197 250.226 165.197C250.802 165.197 251.364 164.9 251.675 164.367Z" fill="#7C2007"/>
<path d="M424.896 324.385C429.853 322.027 433.654 321.092 437.884 321.092C453.392 321.092 458.044 325.745 460.371 344.356C462.697 362.966 442.923 393.981 434.781 400.96C417.552 415.727 396.877 405.463 363.442 409.879C353.167 411.239 342.223 395.144 328.741 395.144C311.293 395.144 299.855 385.646 288.417 386.032C280.668 386.297 264.96 386.419 262.247 398.244C262.537 390.005 283.184 382.178 283.184 362.383C283.184 353.464 275.819 355.207 275.819 352.881C275.819 347.451 280.471 342.026 296.756 342.026C313.591 342.026 316.916 343.575 326.221 348.228C335.526 352.881 338.239 345.902 349.484 353.657C377.636 373.073 382.829 358.31 398.337 361.409C403.949 362.533 413.458 364.899 416.947 364.126C420.752 363.277 437.108 356.757 437.108 344.352C437.108 328.844 424.896 324.385 424.896 324.385Z" fill="#7C2007"/>
<path d="M443.7 321.479C443.7 321.479 428.482 315.083 419.274 313.337C409.539 311.494 394.461 321.092 379.726 321.092C374.129 321.092 367.318 319.153 363.442 317.023C368.871 326.715 358.013 333.501 358.013 336.6C358.013 340.089 363.052 346.682 385.929 346.682C406.479 346.682 414.231 318.376 443.7 321.479Z" fill="#7C2007"/>
<path fill-rule="evenodd" clip-rule="evenodd" d="M398.434 255.905C397.657 267.974 400.663 271.85 400.663 271.85C410.23 273.55 402.989 279.215 414.621 279.215C419.66 279.215 429.184 274.645 428.579 267.584C428.192 263.063 423.268 265.851 421.6 258.278C420.451 253.064 421.718 251.718 423.422 246.675C423.586 246.185 425.351 244.535 424.8 244.32C420.533 242.674 417.724 242.817 417.724 236.178C417.724 226.487 431.295 227.263 431.295 235.792C431.295 243.547 426.546 244.127 424.996 244.32C423.282 244.535 428.389 245.387 428.389 249.263C428.389 251.321 427.226 252.756 427.226 254.402C427.226 258.278 435.561 252.076 435.561 266.42C435.561 272.673 438.664 271.073 442.927 267.197C446.631 263.829 454.433 263.972 456.42 259.492C456.72 258.815 457.991 255.29 457.082 255.175C454.755 254.885 450.686 255.175 450.686 247.033C450.686 238.891 463.094 238.891 463.481 247.033C463.857 254.864 460.149 254.127 458.052 255.175C456.112 256.145 462.318 255.948 462.318 264.481C462.318 265.644 459.605 270.296 450.686 273.786C441.767 277.275 434.788 297.436 422.384 297.436C416.725 297.436 412.263 291.197 397.957 290.07C395.084 288.882 393.258 287.733 392.142 286.387C390.979 281.541 390.205 278.342 377.797 278.052C370.317 277.88 360.396 288.628 360.736 300.539C361.016 310.23 362.676 319.149 382.06 321.089C359.183 321.475 345.615 303.86 345.615 294.723C345.615 279.992 358.797 279.992 358.797 269.91C358.797 259.832 366.162 253.143 369.652 253.143C374.251 253.143 372.755 256.342 391.365 255.565C395.252 255.404 398.434 253.193 398.434 255.905Z" fill="#7C2007"/>
</g>
</svg>
