<svg width="316" height="316" viewBox="0 0 316 316" fill="none" xmlns="http://www.w3.org/2000/svg">
<path d="M161.063 209.788C161.246 211.734 161.291 213.167 161.666 214.903C163.89 214.749 168.045 215.382 167.568 211.504C167.133 207.972 163.875 209.414 161.063 209.788Z" fill="#7C2007"/>
<path d="M202.676 184.456C200.54 183.414 199.525 186.13 198.485 188.932C200.223 189.849 199.907 189.635 202.131 190.69C203.985 187.216 205.269 185.719 202.676 184.456Z" fill="#7C2007"/>
<path d="M204.744 192.058C206.98 193.415 207.977 194.252 208.892 194.725C210.519 192.04 212.893 188.903 209.658 187.551C206.761 186.342 205.853 189.517 204.744 192.058Z" fill="#7C2007"/>
<path d="M246.341 43.7588C246.283 43.7499 246.243 43.7008 246.182 43.703C245.689 43.7053 234.046 43.8079 227.582 45.8585L227.58 45.8563C222.501 47.4807 216.22 54.3287 210.682 60.3756L210.066 61.045C209.762 61.3797 209.673 61.8661 209.849 62.2879C210.021 62.7096 210.425 62.993 210.88 63.0198L211.806 63.0577C215.18 63.2094 216.579 63.2786 219.433 63.9056C223.177 64.7312 224.224 65.2377 227.017 66.5899L227.615 66.8755C227.91 67.0183 228.249 67.0317 228.546 66.9179C228.704 66.8577 228.847 66.7639 228.961 66.6501C229.068 66.543 229.155 66.4114 229.215 66.2664C231.44 60.8643 233.778 55.3618 238.632 50.9817C242.322 50.3078 247.916 50.8723 252.716 58.2068C256.768 64.3965 254.081 74.2144 248.133 81.7072C247.577 82.4057 246.954 83.1041 246.265 83.7935C238.944 91.1146 224.012 97.5989 199.407 99.0291C189.683 99.5914 171.834 101.374 160.907 106.343C158.517 107.43 156.779 108.615 155.565 109.829C152.687 112.707 152.787 115.744 154.32 117.996C155.733 120.064 157.899 123.592 159.165 126.972C161.42 132.986 161.146 136.879 158.305 146.057C158.02 146.762 157.774 147.463 157.661 148.125C157.641 148.19 157.627 148.239 157.605 148.306C157.607 148.299 157.647 148.246 157.656 148.237C157.406 149.83 157.558 151.338 158.223 152.865C162.563 162.912 176.415 162.622 187.235 160.63C196.269 161.917 202.075 174.828 189.437 187.466C187.476 189.427 185.068 191.38 182.165 193.274C169.152 201.767 152.069 207.046 101.408 176.825C84.8296 166.936 66.2782 166.538 51.9106 170.352C45.3884 172.085 37.6256 176.412 31.4113 181.145C30.1394 182.113 28.3097 183.666 26.4421 185.534C21.8299 190.146 17.008 196.668 19.8864 201.019C21.2409 203.07 24.3826 203.931 25.7749 207.211C28.872 214.512 22.5975 223.179 24.6325 232.265C25.2707 236.567 27.7742 240.61 31.8219 243.323C36.501 246.476 42.182 247.159 47.0128 245.166L48.2512 244.651L47.5841 243.484C47.5439 243.413 43.4315 236.087 47.651 225.785L48.3963 223.969L46.4416 224.165C43.0768 224.509 41.0061 223.705 39.7431 223.067C39.2232 222.811 37.9558 221.976 37.4069 219.879C36.9071 218 37.0521 214.892 39.067 210.315C41.4345 208.621 43.9492 207.048 46.6938 205.567C63.7278 196.374 78.0597 200.031 91.7602 207.309C110.312 217.163 122.106 225.178 133.163 228.808C160.923 237.923 188.208 230.127 203.854 214.503C203.872 214.485 203.887 214.47 203.905 214.452C229.722 188.635 223.09 168.281 216.354 159.237L216.423 159.186C216.421 159.184 216.416 159.179 216.416 159.179C216.414 159.177 216.414 159.177 216.414 159.177C210.015 150.395 201.065 149.049 193.163 147.864C188.373 147.139 183.843 146.461 180.824 144.111C177.618 141.619 177.582 139.722 178.019 138.053C178.488 136.21 180.612 134.264 181.386 133.691L182.092 133.155C199.623 128.164 219.11 125.64 224.909 124.339C240.51 120.827 252.107 115.247 260.086 107.267C264.064 103.289 267.144 98.7101 269.368 93.4954C274.616 81.1873 273.295 61.3195 263.589 51.6131C257.056 45.0753 251.281 43.5 246.341 43.7588ZM227.517 64.2068C224.994 62.9908 223.704 62.4284 219.944 61.5962C217.407 61.0406 215.901 60.8955 213.509 60.775C218.556 55.2681 224.112 49.4309 228.294 48.101C231.761 47.0032 236.989 46.4922 240.91 46.2579C233.294 51.0129 230.15 57.8743 227.517 64.2068ZM35.1287 220.479C35.6888 222.605 36.9874 224.314 38.6877 225.171C40.6022 226.131 42.5859 226.606 44.8284 226.604C42.066 234.704 43.8778 240.862 44.9377 243.404C41.1065 244.548 36.7799 243.823 33.1361 241.366C29.151 238.693 26.6942 234.402 26.7099 230.192C26.7099 230.107 26.846 222.349 34.4972 214.697C34.7405 214.454 34.9993 214.204 35.2626 213.959C34.591 216.817 34.7226 218.948 35.1287 220.479ZM60.9119 193.482C58.0736 193.785 54.0237 193.551 49.6079 196.155C49.5119 195.434 45.77 180.098 45.2635 179.636C46.3613 178.53 47.4123 177.889 48.2178 177.601C48.4141 180.15 51.1542 191.338 51.5335 191.802C54.9609 190.356 58.8791 190.208 59.9234 190.146C60.2112 191.532 60.1621 191.96 60.9119 193.482ZM74.8042 193.375C71.4438 192.607 67.0681 192.413 63.7925 193.216C63.4913 190.336 63.2459 176.341 62.8754 175.952C65.4883 175.058 69.7034 174.636 73.4877 174.953C74.0165 177.026 73.9942 177.829 73.9942 177.829C72.3988 177.398 67.8268 177.878 65.6267 178.592C65.9413 180.263 65.7851 181.749 65.8811 183.024C69.3865 182.825 69.6498 182.905 70.4776 182.533C70.4352 183.954 70.5446 184.398 70.7164 185.569C68.8287 185.485 68.9826 185.362 66.0551 185.947C66.0797 187.627 66.0105 188.182 66.1935 190.293C69.893 189.793 73.1575 190.773 75.3129 189.72C75.1121 191.152 74.8042 193.375 74.8042 193.375ZM82.5313 195.042C80.9448 194.423 80.5097 194.296 78.4391 194.006C79.5458 193.19 82.8169 183.206 83.6336 180.15C81.6343 179.311 81.1278 179.237 78.8608 178.675C80.3357 177.584 80.4205 177.659 81.168 176.399C86.1796 178.269 85.5994 178.193 91.0439 179.545C91.2246 181.198 91.7289 182.858 91.7289 182.858C89.4775 181.928 88.7903 181.83 86.4206 181.08C84.7314 185.598 81.7905 194.028 82.5313 195.042ZM102.832 206.274C103.948 205.98 109.39 198.806 112.793 194.649C110.881 193.285 109.7 192.779 107.879 191.262C109.31 190.452 110.146 190.293 111.458 189.512C112.907 191.732 118.532 195.224 121.455 195.613C120.687 196.706 121.113 198.136 120.245 199.174C119.964 198.647 116.774 197.425 115.49 196.508C113.252 199.25 106.427 206.816 106.766 208.878C104.976 208.628 104.702 207.158 102.832 206.274ZM126.069 217.471C127.544 215.175 128.47 213.423 129.425 209.764C128.283 209.237 126.716 208.599 124.373 207.434C123.394 208.534 120.303 213.669 121.185 215.3C119.288 214.965 118.666 214.539 116.461 214.548C119.373 210.404 125.833 198.424 125.206 196.262C127.013 197.36 128.111 196.592 129.9 197.128C127.81 199.616 126.598 202.157 125.786 204.884C127.319 205.341 128.314 206.368 130.53 207.031C132.014 204.944 133.567 199.482 133.328 199.109C135.329 200.174 135.267 201.267 137.027 201.747C135.499 202.356 129.465 218.189 130.155 219.464C128.437 218.678 126.069 217.471 126.069 217.471ZM137.815 223.893C138.875 220.356 141.151 205.089 140.825 204.621C146.37 205.681 147.332 205.826 151.962 205.39C152.118 207.591 152.352 207.517 152.515 209.144C149.284 207.939 147.972 208.282 143.837 207.905C143.291 209.344 143.094 211.237 143.179 212.192C145.114 212.77 146.296 212.765 148.885 212.796C149.039 214.142 148.483 215.755 148.441 216.204C146.488 214.97 145.306 215.706 142.927 215.273C142.325 217.603 142.133 218.259 141.865 220.405C144.643 221.05 152.274 220.684 152.667 220.291C152.667 220.291 152.377 222.96 151.806 224.558C149.01 223.351 140.649 223.687 137.815 223.893ZM168.608 216.623C170.966 220.445 172.093 221.885 173.782 223.645C171.709 223.933 171.823 224.127 169.621 224.803C169.788 224.221 169.328 223.23 168.922 222.614C167.275 220.115 167.307 219.865 165.872 217.444C164.725 217.6 163.569 217.828 161.702 217.848C161.351 220.528 161.675 224.288 162.317 225.662C162.317 225.662 160.697 226.488 158.011 225.961C159.488 224.721 158.261 214.572 158.207 209.36C158.198 208.637 157.96 207.707 157.31 207.41C164.047 206.087 169.308 205.016 170.207 210.422C170.725 213.533 170.732 215.115 168.608 216.623ZM185.593 203.132C184.6 202.876 180.188 204.775 176.828 206.533L178.446 210.36C180.503 209.887 182.567 208.599 183.256 208.035L184.675 210.761C183.129 210.884 181.958 212.109 179.494 213.015L181.27 218.027C183.542 217.192 189.042 215.302 189.647 213.006L190.535 217.103C190.535 217.103 185.566 220.867 178.649 221.791C179.403 220.854 176.964 214.345 176.341 212.999C174.922 209.907 174.661 207.504 172.292 205.37L183.484 200.212L185.593 203.132ZM213.877 190.887C213.114 194.055 210.374 195.947 209.664 199.103C207.049 197.126 204.829 195.401 202.729 194.319C199.431 192.618 196.004 191.137 194.362 191.329C195.163 190.255 195.672 187.167 197.044 184.88C198.686 182.149 200.897 180.397 203.771 181.624C206.128 182.629 206.603 183.912 206.801 184.98C207.194 184.726 208.937 183.599 211.021 184.795C214.83 186.98 214.444 188.539 213.877 190.887ZM215.432 182.767C210.938 180.491 201.747 177.075 200.061 178.155C201.654 174.036 201.895 173.531 200.926 170.001C202.363 169.658 203.095 169.698 204.037 169.261C204.441 172.44 204.78 172.994 204.057 175.457C205.422 175.609 206.946 176.28 207.826 176.539C208.45 174.571 208.2 173.232 207.993 172.311C209.191 172.617 209.963 173.009 210.851 172.746C211.333 174.848 211.302 175.602 210.615 177.454C212.384 178.26 212.556 178.24 214.024 178.695C215.827 176.307 214.723 171.923 214.723 171.923C214.723 171.923 217.271 173.418 217.829 173.627C218.603 177.343 216.789 180.107 215.432 182.767ZM175.739 137.46C175.212 139.486 175.009 142.58 179.376 145.974C182.89 148.699 187.71 149.431 192.818 150.192C198.724 151.077 204.782 151.99 209.901 155.841C205.757 155.009 199.967 155.145 192.833 156.986C182.663 159.601 164.919 162.43 160.378 151.928C159.218 149.245 159.68 146.423 164.709 140.684C166.428 139.189 168.226 137.863 169.85 137.212C172.22 136.257 174.733 135.373 177.316 134.548C176.647 135.413 176.02 136.375 175.739 137.46ZM186.614 121.956C186.619 122.947 186.713 123.625 187.195 125.41C186.826 125.337 186.704 125.312 185.807 125.558C182.839 126.365 177.216 128.623 175.574 129.154C176.828 126.048 171.406 110.857 170.913 109.981C172.845 109.771 173.675 109.133 175.029 108.742C174.726 113.482 178.475 122.545 178.778 124.741C181.752 123.337 184.499 122.929 186.614 121.956ZM191.648 124.277C191.994 120.611 188.23 107.537 187.978 106.736C189.89 107.269 191.93 106.274 191.93 106.274C191.7 107.981 194.841 121.534 195.779 123.748C194.33 123.393 193.19 123.775 191.648 124.277ZM208.433 122.777C204.927 123.895 200.11 120.872 198.24 116.021C195.767 109.595 199.458 104.967 203.129 103.871C206.505 102.86 207.274 103.438 209.539 104.485C209.539 104.485 208.979 105.768 207.989 107.151C207.341 105.955 205.862 105.712 203.762 106.384C200.737 107.352 199.463 111.014 201 114.649C202.841 119.002 204.679 120.439 207.812 119.738C211.516 118.913 209.925 114.242 209.655 113.781C208.524 113.796 207.839 113.803 206.139 114.557C206.012 113.029 205.925 113.013 205.458 111.855C206.828 111.337 211.193 110.489 211.815 110.161C212.087 110.675 211.588 111.161 211.84 111.757C213.279 115.173 214.312 120.905 208.433 122.777ZM229.157 101.374C230.284 105.848 233.258 116.226 234.309 116.251C233.972 116.503 231.487 116.373 229.985 117.241C230.492 116.445 228.615 111.043 228.151 109.338C225.025 109.38 222.894 110.342 221.372 110.958C221.553 111.982 222.568 118.183 223.677 118.623C221.87 118.739 221.606 118.935 219.56 119.455C219.94 118.544 219.875 117.895 219.819 117.255C219.687 115.744 216.45 103.193 215.542 102.932C215.542 102.932 218.52 102.764 219.214 102.048L219.337 102.943C219.545 105.409 220.178 106.819 220.774 108.374C223.099 107.058 225.431 106.962 227.488 106.515C227.488 106.515 225.986 100.225 225.313 100.337C227.892 99.9083 229.095 99.1519 229.095 99.1519C228.892 99.6807 229.061 100.997 229.157 101.374ZM240.646 98.3999C243.594 104.913 246.968 111.21 247.561 111.357C246.202 111.998 245.408 112.207 244.049 113.116C243.17 109.487 239.111 102.171 237.9 99.3705C235.671 100.14 234.901 100.424 233.403 101.546C233.256 101.287 233.493 98.1232 233.81 97.4003C233.81 97.4003 239.85 96.3716 242.608 93.7476C244.027 95.0864 244.25 95.372 245.437 96.1976C244.027 96.385 241.798 97.7127 240.646 98.3999Z" fill="#7C2007"/>
</svg>
