<svg width="400" height="400" viewBox="0 0 400 400" fill="none" xmlns="http://www.w3.org/2000/svg">
<rect width="400" height="400" rx="12" fill="#2C2B05"/>
<path d="M200 62C218.745 62 236.223 76.829 249.133 101.951C261.989 126.969 270 161.67 270 200.108C270 238.547 261.989 273.248 249.133 298.266C236.223 323.388 218.745 338.216 200 338.216C181.255 338.216 163.777 323.388 150.867 298.266C138.011 273.248 130 238.547 130 200.108C130 161.67 138.011 126.969 150.867 101.951C163.777 76.829 181.255 62 200 62Z" stroke="url(#paint0_linear_136_222)" stroke-width="4"/>
<path d="M62 196.109C62 177.364 76.829 159.887 101.951 146.977C126.969 134.12 161.67 126.109 200.108 126.109C238.547 126.109 273.248 134.12 298.266 146.977C323.388 159.887 338.216 177.364 338.216 196.109C338.216 214.855 323.388 232.332 298.266 245.242C273.248 258.098 238.547 266.109 200.108 266.109C161.67 266.109 126.969 258.098 101.951 245.242C76.829 232.332 62 214.855 62 196.109Z" stroke="url(#paint1_linear_136_222)" stroke-width="4"/>
<circle cx="200" cy="200" r="142" stroke="url(#paint2_linear_136_222)" stroke-width="4"/>
<defs>
<linearGradient id="paint0_linear_136_222" x1="200" y1="60" x2="314.705" y2="302.518" gradientUnits="userSpaceOnUse">
<stop stop-color="#FFF500"/>
<stop offset="1" stop-color="white" stop-opacity="0"/>
</linearGradient>
<linearGradient id="paint1_linear_136_222" x1="60" y1="196.109" x2="302.518" y2="81.4048" gradientUnits="userSpaceOnUse">
<stop stop-color="#FFF500"/>
<stop offset="1" stop-color="white" stop-opacity="0"/>
</linearGradient>
<linearGradient id="paint2_linear_136_222" x1="98" y1="92" x2="290" y2="336" gradientUnits="userSpaceOnUse">
<stop stop-color="#FFF500"/>
<stop offset="1" stop-color="white" stop-opacity="0"/>
</linearGradient>
</defs>
</svg>
