<svg width="40" height="48" viewBox="0 0 40 48" fill="none" xmlns="http://www.w3.org/2000/svg">
<path d="M30.4011 21.8726C33.7605 19.847 36.6448 16.134 36.6448 11.6787C36.6448 4.45537 30.6694 0 20.202 0C15.7048 0 14.6306 0.405324 10.4016 0.405324C6.17269 0.405324 3.35622 0.0682651 1.60865 0.0682651C0.537631 0.0682651 0 0.676252 0 1.55303C0 2.29648 0.402958 2.9034 1.81013 3.17326C5.43782 3.71298 6.30736 4.45643 6.30736 6.27933C6.37417 12.0179 6.44204 16.3388 6.44204 23.8992C6.44204 31.4596 6.44204 35.916 6.30736 41.6545C6.24056 43.6118 5.56825 44.1526 1.94481 44.4897C0.537632 44.6923 0.134673 45.3675 0.134673 46.1099C0.134673 46.9878 0.672304 47.5957 1.74333 47.5957C4.36362 47.5957 6.84499 47.4603 10.4016 47.4603C13.7568 47.4603 16.8468 48 22.2136 48C33.3575 48 40 41.4508 40 33.8232C40 27.8148 36.3766 23.9675 30.4011 21.8747V21.8726ZM14.4291 6.27826C14.4291 4.92789 14.7653 4.38817 15.7726 3.98284C16.5786 3.71298 17.7843 3.57752 19.6654 3.57752C25.2369 3.57752 28.6599 6.61532 28.6599 12.5565C28.6599 15.8642 27.5846 18.6321 25.8424 20.7249C22.4162 20.1169 18.5234 19.9153 14.2955 20.1169C14.2955 14.7837 14.2955 10.9363 14.4302 6.27719L14.4291 6.27826ZM21.1426 44.2859C19.3282 44.2859 18.1872 44.1505 17.183 43.8806C15.1671 43.4081 14.4959 42.7329 14.4291 40.302C14.2944 35.1715 14.2944 31.1886 14.2944 23.8971V23.7616C25.7066 23.4917 31.6778 26.057 31.6778 34.428C31.6778 39.3559 28.188 44.2838 21.1426 44.2838V44.2859Z" fill="#7C2007"/>
</svg>
