<svg width="32" height="32" viewBox="0 0 32 32" fill="none" xmlns="http://www.w3.org/2000/svg">
<g clip-path="url(#clip0_2062_82)">
<path d="M25.6 0H6.4C2.86538 0 0 2.86538 0 6.4V25.6C0 29.1346 2.86538 32 6.4 32H25.6C29.1346 32 32 29.1346 32 25.6V6.4C32 2.86538 29.1346 0 25.6 0Z" fill="#D2F508"/>
<path d="M16.784 22.16C15.888 22.16 15.0613 22.016 14.304 21.728C13.5573 21.44 12.9067 21.04 12.352 20.528C11.808 20.0053 11.3867 19.3867 11.088 18.672C10.7893 17.9573 10.64 17.1733 10.64 16.32C10.64 15.4667 10.7893 14.6827 11.088 13.968C11.3973 13.2533 11.8293 12.64 12.384 12.128C12.9387 11.6053 13.5947 11.2 14.352 10.912C15.12 10.624 15.9627 10.48 16.88 10.48C17.4027 10.48 17.9147 10.544 18.416 10.672C18.928 10.7893 19.408 10.976 19.856 11.232C20.3147 11.4773 20.7307 11.792 21.104 12.176L19.04 14.592C18.8907 14.4107 18.7093 14.2453 18.496 14.096C18.2933 13.9467 18.0533 13.8293 17.776 13.744C17.5093 13.648 17.2 13.6 16.848 13.6C16.4853 13.6 16.1387 13.664 15.808 13.792C15.488 13.9093 15.2053 14.0853 14.96 14.32C14.7253 14.5547 14.5387 14.8427 14.4 15.184C14.2613 15.5253 14.192 15.92 14.192 16.368C14.192 16.7733 14.2613 17.1413 14.4 17.472C14.5387 17.8027 14.736 18.0853 14.992 18.32C15.248 18.5547 15.5573 18.736 15.92 18.864C16.2827 18.992 16.688 19.056 17.136 19.056C17.456 19.056 17.76 19.008 18.048 18.912C18.336 18.816 18.5973 18.6933 18.832 18.544C19.0667 18.384 19.2693 18.208 19.44 18.016L21.088 20.608C20.8107 20.9067 20.4427 21.1733 19.984 21.408C19.5253 21.6427 19.0187 21.8293 18.464 21.968C17.9093 22.096 17.3493 22.16 16.784 22.16Z" fill="#1F4951"/>
</g>
<defs>
<clipPath id="clip0_2062_82">
<rect width="32" height="32" fill="white"/>
</clipPath>
</defs>
</svg>
